<svg width="18" height="18" viewBox="0 0 18 18" fill="none" xmlns="http://www.w3.org/2000/svg">
<path d="M9 18C4.0372 18 0 13.9628 0 9C0 4.0372 4.0372 0 9 0C13.9628 0 18 4.0372 18 9C18 13.9628 13.9628 18 9 18ZM9 1.125C4.65752 1.125 1.125 4.65752 1.125 9C1.125 13.3425 4.65752 16.875 9 16.875C13.3425 16.875 16.875 13.3425 16.875 9C16.875 4.65752 13.3425 1.125 9 1.125Z" fill="white"/>
<path d="M12.9375 9.5625H5.0625C4.752 9.5625 4.5 9.3105 4.5 9C4.5 8.6895 4.752 8.4375 5.0625 8.4375H12.9375C13.248 8.4375 13.5 8.6895 13.5 9C13.5 9.3105 13.248 9.5625 12.9375 9.5625Z" fill="white"/>
<path d="M9 13.5C8.6895 13.5 8.4375 13.248 8.4375 12.9375V5.0625C8.4375 4.752 8.6895 4.5 9 4.5C9.3105 4.5 9.5625 4.752 9.5625 5.0625V12.9375C9.5625 13.248 9.3105 13.5 9 13.5Z" fill="white"/>
</svg>
