<svg width="29" height="29" viewBox="0 0 29 29" fill="none" xmlns="http://www.w3.org/2000/svg">
<path d="M27.1875 14.5C27.1875 21.5035 21.5098 27.1875 14.5 27.1875C7.49016 27.1875 1.8125 21.5035 1.8125 14.5C1.8125 7.49015 7.49016 1.8125 14.5 1.8125C21.5098 1.8125 27.1875 7.49015 27.1875 14.5Z" fill="#283544"/>
<path d="M20.4469 11.2895C20.3777 11.3299 18.7295 12.1823 18.7295 14.0721C18.8072 16.2274 20.8094 16.9832 20.8438 16.9832C20.8094 17.0236 20.5415 18.0129 19.7478 19.0499C19.1179 19.9431 18.4188 20.8438 17.3572 20.8438C16.3474 20.8438 15.9849 20.2484 14.8197 20.2484C13.5684 20.2484 13.2143 20.8438 12.2563 20.8438C11.1947 20.8438 10.4438 19.8949 9.77959 19.01C8.91668 17.8519 8.18324 16.0344 8.15734 14.2893C8.13989 13.3645 8.33015 12.4555 8.81311 11.6834C9.49477 10.6055 10.7117 9.87381 12.0407 9.84968C13.059 9.81769 13.9652 10.5011 14.5867 10.5011C15.1822 10.5011 16.2956 9.84968 17.5553 9.84968C18.0991 9.85021 19.5491 10.0028 20.4469 11.2895ZM14.5005 9.66505C14.3193 8.82056 14.8197 7.97608 15.2858 7.43739C15.8813 6.78593 16.8219 6.34375 17.633 6.34375C17.6848 7.18824 17.3566 8.01646 16.7701 8.61967C16.2438 9.27113 15.3376 9.76156 14.5005 9.66505Z" fill="white"/>
</svg>
