<svg width="41" height="40" viewBox="0 0 41 40" fill="none" xmlns="http://www.w3.org/2000/svg">
<circle cx="19.9983" cy="20.0003" r="13.1429" fill="#4CCCA7" fill-opacity="0.3"/>
<path d="M20.0023 39.9995C18.1165 39.9995 16.2083 39.3171 16.2083 38.0148C16.2083 36.8698 17.69 36.2055 19.329 36.0617V33.6373C16.3881 33.4935 13.6896 32.4162 11.521 30.692L9.91806 32.5195C10.385 33.0044 10.7578 33.5165 10.9957 34.0104C11.5435 35.1373 11.2156 35.7705 10.9732 36.049C10.7308 36.3274 10.1426 36.7358 8.9571 36.3365C8.27026 36.1075 7.50668 35.645 6.81546 35.0389C6.12392 34.4328 5.5674 33.737 5.24853 33.0858C4.70076 31.9589 5.02867 31.3257 5.27108 31.0472C5.5135 30.7688 6.10165 30.3604 7.28717 30.7597C7.80363 30.9348 8.36485 31.2358 8.90357 31.6354L10.5065 29.8079C8.0908 27.4686 6.53734 24.2537 6.36223 20.6756H3.9378C3.79404 22.3145 3.12976 23.7963 1.98473 23.7963C0.682799 23.7963 0 21.888 0 20.0022C0 18.1164 0.682454 16.2082 1.98473 16.2082C3.12976 16.2082 3.79404 17.6899 3.9378 19.3289H6.36223C6.51476 16.1456 7.75846 13.1552 9.91389 10.8027L8.20321 9.08298C7.68675 9.51394 7.14806 9.85062 6.64502 10.0573C5.48211 10.5287 4.87613 10.156 4.61555 9.8957C4.35528 9.63543 3.98696 9.01999 4.4674 7.86181C4.74584 7.18844 5.2576 6.46559 5.90877 5.81446C7.24678 4.48558 9.07862 3.62334 9.99915 4.5482C10.8072 5.36097 10.2237 6.87402 9.16417 8.13121L10.8749 9.85096C13.2185 7.73625 16.1776 6.51482 19.3337 6.36224V3.9378C17.6947 3.79404 16.213 3.12976 16.213 1.98474C16.213 0.682799 18.1213 0 20.007 0C21.8927 0 23.801 0.682455 23.801 1.98474C23.801 3.12976 22.3194 3.79404 20.6803 3.9378V6.36224C23.5495 6.5013 26.2615 7.52514 28.493 9.29877L30.0916 7.476C28.9735 6.3175 28.2462 4.84919 29.0365 3.95127C29.894 2.97253 31.7798 3.71794 33.1941 4.96168C34.5681 6.165 35.6367 7.92956 34.7388 8.95336C33.9846 9.8156 32.4309 9.33953 31.1063 8.36518L29.5077 10.188C29.5525 10.2327 29.5976 10.2778 29.6424 10.3226C32.076 12.7427 33.4813 15.9217 33.6476 19.3251H36.072C36.2158 17.6861 36.88 16.2044 38.0251 16.2044C39.327 16.2044 40.0098 18.1127 40.0098 19.9984C40.0098 21.8841 39.3273 23.7924 38.0251 23.7924C36.88 23.7924 36.2158 22.3107 36.072 20.6717H33.6476C33.486 23.9449 32.1702 26.9219 30.0915 29.1939L31.8066 30.9181C32.3231 30.4871 32.8617 30.1504 33.3648 29.9437C34.5233 29.4724 35.1337 29.8451 35.3943 30.1053C35.6545 30.3656 36.0228 30.9811 35.5424 32.1392C35.264 32.8126 34.7522 33.5355 34.101 34.1866C32.8034 35.4751 30.9716 36.4181 30.0107 35.4528C29.1666 34.6041 29.8043 33.0958 30.8456 31.8698L29.1305 30.1457C26.8677 32.1843 23.9177 33.4772 20.6757 33.6387V36.0632C22.3147 36.2069 23.7964 36.8712 23.7964 38.0162C23.7958 39.3173 21.8875 40 20.0017 40L20.0023 39.9995ZM17.5688 38.0148C17.7213 38.2212 18.561 38.6525 20.0023 38.6525C21.4437 38.6525 22.2833 38.2215 22.4359 38.0148C22.2834 37.8084 21.4437 37.3771 20.0023 37.3771C18.561 37.3771 17.7213 37.8084 17.5688 38.0148ZM6.29408 31.9444C6.27153 32.2003 6.62199 33.076 7.7041 34.0278C8.78618 34.9752 9.69757 35.2086 9.9535 35.1547C9.97605 34.8988 9.62559 34.0231 8.54348 33.0713C7.46172 32.1195 6.5456 31.8905 6.29408 31.9444ZM30.9714 34.4948C31.2229 34.5352 32.1208 34.248 33.1446 33.2333C34.1685 32.2185 34.46 31.325 34.4243 31.0691C34.1685 31.0287 33.2749 31.3159 32.2511 32.3306C31.2273 33.3454 30.9354 34.2433 30.9714 34.4948ZM11.3277 11.2679C11.3142 11.2814 11.2964 11.2992 11.2829 11.3127C8.96149 13.6429 7.69082 16.7366 7.69988 20.0233C7.71335 26.7987 13.2315 32.2994 20.0024 32.3034H20.0159H20.0385C26.8229 32.2899 32.3322 26.7539 32.3186 19.9696C32.3095 16.6829 31.0254 13.5938 28.6952 11.2774C28.5158 11.098 28.336 10.9273 28.1475 10.761C28.1384 10.7566 28.134 10.7475 28.1249 10.7431C28.1158 10.7387 28.1114 10.7296 28.1024 10.7253C25.8618 8.76306 23.0198 7.69444 20.0156 7.69011H20.0021H19.9796C16.7154 7.69919 13.6533 8.96511 11.3411 11.2597C11.3317 11.264 11.3317 11.264 11.3274 11.2684L11.3277 11.2679ZM38.0519 22.448H38.0563H38.0519ZM2.01496 22.448H2.01935H2.01496ZM38.0199 17.5675C37.8135 17.72 37.3822 18.5597 37.3822 20.001C37.3822 21.4424 37.8131 22.282 38.0199 22.4346C38.2262 22.2821 38.6575 21.4424 38.6575 20.001C38.6575 18.5597 38.2266 17.72 38.0199 17.5675ZM1.98369 17.5675C1.7773 17.72 1.34603 18.5597 1.34603 20.001C1.34603 21.4424 1.77698 22.282 1.98369 22.4346C2.19009 22.2821 2.62136 21.4424 2.62136 20.001C2.62105 18.5597 2.19009 17.72 1.98369 17.5675ZM5.58891 8.96431H5.5933H5.58891ZM5.58014 8.9283C5.83164 8.96431 6.72958 8.6815 7.75338 7.66677C8.77717 6.65204 9.06878 5.75844 9.0331 5.50259C8.77691 5.46219 7.87894 5.7497 6.85987 6.76412C5.83599 7.77886 5.54414 8.67245 5.58014 8.9283ZM31.4649 6.93041C32.547 7.8778 33.4631 8.10679 33.7099 8.05291C33.7325 7.79703 33.382 6.92135 32.2999 5.96955C31.2178 5.01776 30.3017 4.78877 30.0505 4.84265C30.0326 5.10291 30.3781 5.97861 31.4649 6.93041C31.4602 6.93041 31.4602 6.93041 31.4649 6.93041ZM20.0018 2.61549C21.4432 2.61549 22.2828 2.18453 22.4354 1.97782C22.2829 1.77581 21.4432 1.34485 20.0018 1.34485C18.5605 1.34485 17.7208 1.77581 17.5682 1.98252C17.7208 2.18892 18.5605 2.61549 20.0018 2.61549ZM22.4532 2.01384H22.4576H22.4532ZM19.3193 30.5028C18.7355 30.5028 18.0935 30.4086 17.4427 30.2244C15.265 29.6002 13.927 28.2757 14.2681 27.068C14.3759 26.6862 14.6452 26.363 15.0404 26.1432C15.8532 25.6896 17.2225 25.6583 18.6235 26.0533C20.8055 26.6775 22.1391 28.002 21.798 29.2097C21.6903 29.5914 21.421 29.9147 21.0257 30.1345C20.59 30.3772 19.9928 30.5028 19.3194 30.5028H19.3193ZM16.742 27.1219C16.2706 27.1219 15.907 27.2027 15.6959 27.3195C15.606 27.369 15.5656 27.4138 15.5612 27.4316C15.503 27.6336 16.1898 28.4642 17.8107 28.9312C18.9961 29.2679 19.9658 29.1871 20.3654 28.9625C20.4553 28.913 20.4957 28.8682 20.5 28.8504C20.5583 28.6484 19.8715 27.8178 18.2506 27.3508C17.685 27.1848 17.1686 27.1219 16.742 27.1219V27.1219ZM12.8358 23.512C12.5213 23.512 12.2116 23.4447 11.9197 23.3056C11.3945 23.0588 10.9992 22.6231 10.8016 22.0798C10.604 21.5364 10.6309 20.9482 10.878 20.4229C11.1248 19.8977 11.5605 19.5025 12.1039 19.3049C13.2264 18.8961 14.4744 19.4799 14.8788 20.6068C15.0764 21.1502 15.0494 21.7384 14.8023 22.2636C14.5555 22.7888 14.1199 23.1841 13.5765 23.3817C13.3341 23.4716 13.0826 23.512 12.8358 23.512L12.8358 23.512ZM12.8358 20.526C12.7415 20.526 12.6473 20.5438 12.5574 20.5755C12.351 20.6519 12.1847 20.8 12.0948 20.9977C12.0049 21.1953 11.9914 21.4199 12.0678 21.6262C12.1443 21.8326 12.2924 21.999 12.49 22.0888C12.6877 22.1831 12.9122 22.1922 13.1186 22.1158C13.325 22.0394 13.4913 21.8912 13.5812 21.6936C13.6711 21.496 13.6846 21.2714 13.6081 21.065C13.4866 20.7327 13.1681 20.526 12.8358 20.526L12.8358 20.526ZM28.6494 21.4377C28.3709 21.4377 28.0837 21.3525 27.8097 21.1909C27.0104 20.7195 26.2876 19.552 25.9283 18.1423C25.367 15.9468 25.8431 14.1237 27.0552 13.8095C27.4414 13.7109 27.8498 13.7782 28.245 14.0115C29.0443 14.4829 29.7671 15.6549 30.1264 17.0602C30.6877 19.2557 30.2116 21.0788 28.9995 21.3929C28.883 21.4242 28.7662 21.4377 28.6494 21.4377L28.6494 21.4377ZM27.4057 15.1111H27.3966C27.1902 15.165 26.8175 16.1754 27.235 17.8096C27.5403 19.0039 28.1016 19.7988 28.4965 20.0321C28.5817 20.0816 28.6446 20.095 28.6625 20.0903C28.8689 20.0365 29.2416 19.0261 28.8241 17.3919C28.5187 16.1976 27.9574 15.4027 27.5626 15.1694C27.4865 15.1246 27.4282 15.1111 27.4057 15.1111ZM21.5551 20.3779C21.2407 20.3779 20.9309 20.3106 20.639 20.1715C20.1138 19.9247 19.7185 19.4891 19.5209 18.9457C19.3233 18.4023 19.3502 17.8141 19.5973 17.2889C19.8441 16.7636 20.2798 16.3684 20.8232 16.1708C21.3666 15.9731 21.9547 16.0001 22.48 16.2472C23.0052 16.494 23.4004 16.9296 23.5981 17.473C23.7957 18.0164 23.7688 18.6046 23.5217 19.1298C23.2749 19.6551 22.8392 20.0503 22.2958 20.2479C22.0537 20.3375 21.8022 20.3779 21.5551 20.3779L21.5551 20.3779ZM21.5551 17.3922C21.4608 17.3922 21.3666 17.4101 21.2767 17.4417C21.0703 17.5181 20.904 17.6663 20.8141 17.8639C20.7242 18.0615 20.7107 18.2861 20.7872 18.4925C20.8636 18.6989 21.0117 18.8652 21.2093 18.9551C21.407 19.0493 21.6315 19.0584 21.8379 18.982C22.0443 18.9056 22.2106 18.7574 22.3005 18.5598C22.3904 18.3622 22.4039 18.1376 22.3275 17.9312C22.251 17.7248 22.1029 17.5585 21.9053 17.4686C21.7931 17.4145 21.6763 17.3922 21.5551 17.3922L21.5551 17.3922ZM13.5226 15.9105C12.8132 15.9105 12.2476 15.6681 11.9375 15.1833C11.7264 14.8466 11.6637 14.4335 11.7668 13.989C11.9732 13.082 12.8667 12.0403 14.0969 11.2679C16.0187 10.0646 17.9001 9.95683 18.569 11.0164C18.7801 11.3531 18.8428 11.7662 18.7397 12.2107C18.5333 13.1177 17.6398 14.1594 16.4096 14.9318C15.377 15.5826 14.3532 15.9105 13.5225 15.9105H13.5226ZM17.016 11.6316C16.5581 11.6316 15.7632 11.8111 14.8114 12.4084C13.7653 13.0639 13.1815 13.8406 13.0782 14.285C13.0556 14.3837 13.0647 14.4422 13.0738 14.4601C13.1859 14.6395 14.2636 14.6847 15.6915 13.7911C16.7375 13.1356 17.3213 12.3589 17.4247 11.9144C17.4472 11.8158 17.4381 11.7572 17.4291 11.7394C17.393 11.6764 17.2493 11.6316 17.0159 11.6316L17.016 11.6316Z" fill="#4CCCA7"/>
</svg>
