<svg width="16" height="22" viewBox="0 0 16 22" fill="none" xmlns="http://www.w3.org/2000/svg">
<path d="M8 9.5C8.8357 9.5 9.6549 9.26728 10.3658 8.82793C11.0767 8.38857 11.6512 7.75994 12.0249 7.01246C12.3987 6.26499 12.5569 5.4282 12.4818 4.59587C12.4068 3.76355 12.1014 2.96856 11.6 2.3C11.4807 2.14087 11.303 2.03567 11.1061 2.00754C10.9092 1.97941 10.7091 2.03065 10.55 2.15C10.3909 2.26935 10.2857 2.44702 10.2575 2.64393C10.2294 2.84085 10.2807 3.04087 10.4 3.2C10.8055 3.74065 11.0165 4.40237 10.999 5.07795C10.9814 5.75353 10.7363 6.40339 10.3033 6.92224C9.87023 7.4411 9.27471 7.79854 8.61316 7.93667C7.95162 8.0748 7.26282 7.98551 6.65836 7.68328C6.0539 7.38105 5.56919 6.88358 5.28277 6.27147C4.99634 5.65936 4.92498 4.96847 5.08025 4.31074C5.23552 3.65301 5.60832 3.06697 6.13825 2.64758C6.66818 2.22818 7.32419 2 8 2C8.19891 2 8.38968 1.92098 8.53033 1.78033C8.67098 1.63968 8.75 1.44891 8.75 1.25C8.75 1.05109 8.67098 0.860322 8.53033 0.71967C8.38968 0.579018 8.19891 0.5 8 0.5C6.80653 0.5 5.66193 0.974106 4.81802 1.81802C3.97411 2.66193 3.5 3.80653 3.5 5C3.5 6.19347 3.97411 7.33807 4.81802 8.18198C5.66193 9.02589 6.80653 9.5 8 9.5ZM11.75 10.25H4.25C3.25544 10.25 2.30161 10.6451 1.59835 11.3483C0.895088 12.0516 0.5 13.0054 0.5 14V20.75C0.5 20.9489 0.579018 21.1397 0.71967 21.2803C0.860322 21.421 1.05109 21.5 1.25 21.5H7.25C7.44891 21.5 7.63968 21.421 7.78033 21.2803C7.92098 21.1397 8 20.9489 8 20.75C8 20.5511 7.92098 20.3603 7.78033 20.2197C7.63968 20.079 7.44891 20 7.25 20H2V14C2 13.4033 2.23705 12.831 2.65901 12.409C3.08097 11.9871 3.65326 11.75 4.25 11.75H11.75C12.3467 11.75 12.919 11.9871 13.341 12.409C13.7629 12.831 14 13.4033 14 14V20H11V18.5H12.5C12.6989 18.5 12.8897 18.421 13.0303 18.2803C13.171 18.1397 13.25 17.9489 13.25 17.75C13.25 17.5511 13.171 17.3603 13.0303 17.2197C12.8897 17.079 12.6989 17 12.5 17H11V15.5C11 15.3011 10.921 15.1103 10.7803 14.9697C10.6397 14.829 10.4489 14.75 10.25 14.75C10.0511 14.75 9.86032 14.829 9.71967 14.9697C9.57902 15.1103 9.5 15.3011 9.5 15.5V17H8C7.80109 17 7.61032 17.079 7.46967 17.2197C7.32902 17.3603 7.25 17.5511 7.25 17.75C7.25 17.9489 7.32902 18.1397 7.46967 18.2803C7.61032 18.421 7.80109 18.5 8 18.5H9.5V20.75C9.5 20.9489 9.57902 21.1397 9.71967 21.2803C9.86032 21.421 10.0511 21.5 10.25 21.5H14.75C14.9489 21.5 15.1397 21.421 15.2803 21.2803C15.421 21.1397 15.5 20.9489 15.5 20.75V14C15.5 13.0054 15.1049 12.0516 14.4017 11.3483C13.6984 10.6451 12.7446 10.25 11.75 10.25Z" fill="#6A6E83"/>
</svg>
