<svg width="44" height="44" viewBox="0 0 44 44" fill="none" xmlns="http://www.w3.org/2000/svg">
<circle opacity="0.1" cx="22" cy="22" r="22" fill="#F2994A"/>
<path d="M28.92 16.01C28.72 15.42 28.16 15 27.5 15H16.5C15.84 15 15.29 15.42 15.08 16.01L13 22V30C13 30.55 13.45 31 14 31H15C15.55 31 16 30.55 16 30V29H28V30C28 30.55 28.45 31 29 31H30C30.55 31 31 30.55 31 30V22L28.92 16.01ZM16.85 17H27.14L28.22 20.11H15.77L16.85 17ZM29 27H15V22H29V27Z" fill="#F2994A"/>
<path d="M17.5 26C18.3284 26 19 25.3284 19 24.5C19 23.6716 18.3284 23 17.5 23C16.6716 23 16 23.6716 16 24.5C16 25.3284 16.6716 26 17.5 26Z" fill="#F2994A"/>
<path d="M26.5 26C27.3284 26 28 25.3284 28 24.5C28 23.6716 27.3284 23 26.5 23C25.6716 23 25 23.6716 25 24.5C25 25.3284 25.6716 26 26.5 26Z" fill="#F2994A"/>
</svg>
