<svg width="20" height="20" viewBox="0 0 20 20" fill="none" xmlns="http://www.w3.org/2000/svg">
<path d="M19.9699 19.2286L18.6489 15.2657C18.2376 14.032 17.1935 13.0903 15.9239 12.8081L12.4689 12.0403V10.5572C13.9675 9.69801 14.9793 8.08215 14.9793 6.23438V3.8116C14.9793 3.22445 14.7853 2.64238 14.433 2.17262L14.4304 2.16918C13.9845 1.57559 12.5929 0 10.0005 0C7.40799 0 6.01651 1.57453 5.56983 2.16918L5.56725 2.17262C5.21494 2.64238 5.02092 3.22445 5.02092 3.8116V6.23438C5.02092 8.08215 6.03272 9.69801 7.53135 10.5572V12.0403L4.07631 12.8081C2.80674 13.0903 1.76256 14.032 1.35127 15.2657L0.0303334 19.2286C-0.0720104 19.5356 0.0939271 19.8675 0.400919 19.9698C0.70799 20.0721 1.03975 19.9062 1.14209 19.5992L2.46303 15.6363C2.74486 14.7908 3.46049 14.1454 4.33057 13.9521L5.02096 13.7987V16.4139C4.29225 16.6593 3.76576 17.3485 3.76576 18.1589C3.76576 19.1741 4.5917 20 5.6069 20C6.62209 20 7.44803 19.1741 7.44803 18.1589C7.44803 17.3485 6.92154 16.6593 6.19283 16.4139V13.5382L7.83065 13.1743L9.49768 15.95C9.60358 16.1264 9.79428 16.2344 10.0001 16.2344C10.2059 16.2344 10.3966 16.1264 10.5025 15.95L12.1681 13.174L13.8074 13.5383V15.1325C13.2246 15.2737 11.9246 15.9341 11.9246 17.5313V19.4141C11.9246 19.7377 12.1869 20 12.5105 20H13.1381C13.4617 20 13.724 19.7377 13.724 19.4141C13.724 19.0905 13.4617 18.8281 13.1381 18.8281H13.0964V17.5312C13.0964 16.8148 13.6762 16.2344 14.3933 16.2344C15.1084 16.2344 15.6902 16.8162 15.6902 17.5312V18.8281H15.6485C15.3249 18.8281 15.0626 19.0905 15.0626 19.4141C15.0626 19.7377 15.3249 20 15.6485 20H16.2761C16.5997 20 16.8621 19.7377 16.8621 19.4141V17.5312C16.8621 16.3719 16.0585 15.3971 14.9792 15.1333V13.7986L15.6696 13.952C16.5397 14.1454 17.2553 14.7908 17.5372 15.6363L18.8581 19.5992C18.9605 19.9061 19.2922 20.072 19.5993 19.9698C19.9063 19.8675 20.0722 19.5357 19.9699 19.2286ZM6.27611 18.1588C6.27611 18.5279 5.97588 18.8281 5.60686 18.8281C5.23783 18.8281 4.9376 18.5279 4.9376 18.1588C4.9376 17.7898 5.23783 17.4896 5.60686 17.4896C5.97588 17.4896 6.27611 17.7898 6.27611 18.1588ZM6.19279 3.8116C6.19279 3.47738 6.30287 3.14609 6.50287 2.87824C6.50358 2.87734 6.50424 2.87645 6.5049 2.87555C6.86014 2.40191 7.94385 1.17188 10.0059 1.17188C12.059 1.17188 13.1459 2.40969 13.4953 2.87555C13.496 2.87645 13.4967 2.87734 13.4973 2.87824C13.6973 3.14605 13.8074 3.47738 13.8074 3.8116V4.8198L13.0008 4.0132C12.879 3.89148 12.7531 3.76562 12.5105 3.76562C12.4195 3.76562 12.3298 3.7868 12.2484 3.8275C10.8406 4.53141 9.15963 4.53141 7.75174 3.8275C7.52615 3.71461 7.25369 3.75887 7.07541 3.93727L6.19283 4.81895V3.8116H6.19279ZM6.19279 6.23438V6.10988C6.52936 6.0127 6.83791 5.83195 7.09256 5.57738C7.26666 5.40324 7.46154 5.2084 7.61655 5.0534C9.13592 5.68438 10.8642 5.68445 12.3837 5.0534L12.9077 5.57742C13.1623 5.83199 13.4708 6.0127 13.8074 6.10988V6.23438C13.8074 8.33371 12.0994 10.0417 10.0001 10.0417C7.90076 10.0417 6.19279 8.33371 6.19279 6.23438ZM11.297 12.3481L10.0001 14.5096L8.70323 12.3481V11.0418C9.1169 11.1536 9.55162 11.2135 10.0001 11.2135C10.4486 11.2135 10.8833 11.1536 11.297 11.0418V12.3481Z" fill="#6A6E83"/>
</svg>
