<svg width="20" height="21" viewBox="0 0 20 21" fill="none" xmlns="http://www.w3.org/2000/svg">
<path d="M7.5 10C7.5 10.55 7.05 11 6.5 11C5.95 11 5.5 10.55 5.5 10C5.5 9.45 5.95 9 6.5 9C7.05 9 7.5 9.45 7.5 10ZM11.75 8C12.3 8 12.75 7.55 12.75 7C12.75 6.45 12.3 6 11.75 6C11.2 6 10.75 6.45 10.75 7C10.75 7.55 11.2 8 11.75 8ZM8.25 8C8.8 8 9.25 7.55 9.25 7C9.25 6.45 8.8 6 8.25 6C7.7 6 7.25 6.45 7.25 7C7.25 7.55 7.7 8 8.25 8ZM8.25 12C7.7 12 7.25 12.45 7.25 13C7.25 13.55 7.7 14 8.25 14C8.8 14 9.25 13.55 9.25 13C9.25 12.45 8.8 12 8.25 12ZM20 9.25V10.75C20 11.16 19.66 11.5 19.25 11.5C18.84 11.5 18.5 11.16 18.5 10.75H16.96C16.81 12.12 16.27 13.38 15.44 14.4L16.53 15.49L16.54 15.48C16.83 15.19 17.31 15.19 17.6 15.48C17.89 15.77 17.89 16.25 17.6 16.54L16.54 17.6C16.25 17.89 15.77 17.89 15.48 17.6C15.19 17.31 15.19 16.84 15.47 16.55L14.38 15.46C13.36 16.28 12.11 16.82 10.74 16.97V18.51H10.75C11.16 18.51 11.5 18.85 11.5 19.26C11.5 19.67 11.16 20.01 10.75 20.01H9.25C8.84 20.01 8.5 19.67 8.5 19.26C8.5 18.85 8.83 18.52 9.24 18.51V16.96C7.87 16.81 6.62 16.27 5.61 15.45L4.52 16.54L4.53 16.55C4.82 16.84 4.82 17.32 4.53 17.61C4.24 17.9 3.76 17.9 3.47 17.61L2.4 16.54C2.11 16.25 2.11 15.77 2.4 15.48C2.69 15.19 3.16 15.19 3.45 15.47L4.54 14.38C3.72 13.36 3.18 12.12 3.04 10.75H1.5C1.5 11.16 1.16 11.5 0.75 11.5C0.34 11.5 0 11.16 0 10.75V9.25C0 8.84 0.34 8.5 0.75 8.5C1.16 8.5 1.5 8.84 1.5 9.25H3.04C3.19 7.88 3.73 6.64 4.54 5.62L3.45 4.53C3.16 4.81 2.69 4.81 2.4 4.52C2.11 4.23 2.11 3.75 2.4 3.46L3.46 2.4C3.75 2.11 4.23 2.11 4.52 2.4C4.81 2.69 4.81 3.17 4.52 3.46L4.51 3.47L5.6 4.56C6.62 3.74 7.86 3.2 9.23 3.05V1.5C8.82 1.49 8.49 1.16 8.49 0.75C8.5 0.34 8.84 0 9.25 0H10.75C11.16 0 11.5 0.34 11.5 0.75C11.5 1.16 11.16 1.5 10.75 1.5H10.74V3.04C12.11 3.18 13.36 3.73 14.38 4.55L15.47 3.46C15.18 3.17 15.19 2.7 15.48 2.41C15.77 2.12 16.25 2.12 16.54 2.41L17.6 3.47C17.89 3.76 17.89 4.24 17.6 4.53C17.31 4.82 16.83 4.82 16.54 4.53L16.53 4.52L15.44 5.6C16.26 6.62 16.81 7.87 16.96 9.25H18.5C18.5 8.84 18.84 8.5 19.25 8.5C19.66 8.5 20 8.84 20 9.25ZM15 10C15 7.24 12.76 5 10 5C7.24 5 5 7.24 5 10C5 12.76 7.24 15 10 15C12.76 15 15 12.76 15 10ZM10 9C9.45 9 9 9.45 9 10C9 10.55 9.45 11 10 11C10.55 11 11 10.55 11 10C11 9.45 10.55 9 10 9ZM13.5 9C12.95 9 12.5 9.45 12.5 10C12.5 10.55 12.95 11 13.5 11C14.05 11 14.5 10.55 14.5 10C14.5 9.45 14.05 9 13.5 9ZM11.75 12C11.2 12 10.75 12.45 10.75 13C10.75 13.55 11.2 14 11.75 14C12.3 14 12.75 13.55 12.75 13C12.75 12.45 12.3 12 11.75 12Z" fill="#6A6E83"/>
</svg>
