<svg width="44" height="44" viewBox="0 0 44 44" fill="none" xmlns="http://www.w3.org/2000/svg">
<circle opacity="0.1" cx="22" cy="22" r="22" fill="#2099FF"/>
<path d="M21 17C21 19.2091 19.2091 21 17 21C14.7909 21 13 19.2091 13 17C13 14.7909 14.7909 13 17 13C19.2091 13 21 14.7909 21 17ZM19 17C19 15.8954 18.1046 15 17 15C15.8954 15 15 15.8954 15 17C15 18.1046 15.8954 19 17 19C18.1046 19 19 18.1046 19 17Z" fill="#2099FF"/>
<path d="M31 21.5C31 23.433 29.433 25 27.5 25C25.567 25 24 23.433 24 21.5C24 19.567 25.567 18 27.5 18C29.433 18 31 19.567 31 21.5ZM29 21.5C29 20.6716 28.3284 20 27.5 20C26.6716 20 26 20.6716 26 21.5C26 22.3284 26.6716 23 27.5 23C28.3284 23 29 22.3284 29 21.5Z" fill="#2099FF"/>
<path d="M20 31V27C20 25.3431 18.6569 24 17 24C15.3431 24 14 25.3431 14 27V31H12V27C12 24.2386 14.2386 22 17 22C19.7614 22 22 24.2386 22 27V31H20Z" fill="#2099FF"/>
<path d="M30 30.5V31H32V30.5C32 28.0147 29.9853 26 27.5 26C25.0147 26 23 28.0147 23 30.5V31H25V30.5C25 29.1193 26.1193 28 27.5 28C28.8807 28 30 29.1193 30 30.5Z" fill="#2099FF"/>
</svg>
