<svg width="44" height="44" viewBox="0 0 44 44" fill="none" xmlns="http://www.w3.org/2000/svg">
<circle opacity="0.1" cx="22" cy="22" r="22" fill="#0066B9"/>
<path d="M14 29H12C12 25.6863 14.6863 23 18 23C21.3137 23 24 25.6863 24 29H22C22 26.7909 20.2091 25 18 25C15.7909 25 14 26.7909 14 29ZM29 26H27V23H24V21H27V18H29V21H32V23H29V26ZM18 22C15.7909 22 14 20.2091 14 18C14 15.7909 15.7909 14 18 14C20.2091 14 22 15.7909 22 18C21.9972 20.208 20.208 21.9972 18 22ZM18 16C16.9074 16.0011 16.0179 16.8788 16.0022 17.9713C15.9866 19.0638 16.8506 19.9667 17.9427 19.9991C19.0348 20.0315 19.9508 19.1815 20 18.09V18.49V18C20 16.8954 19.1046 16 18 16Z" fill="#323232"/>
</svg>
