<svg width="44" height="44" viewBox="0 0 44 44" fill="none" xmlns="http://www.w3.org/2000/svg">
<circle opacity="0.1" cx="22" cy="22" r="22" fill="#D24944"/>
<path d="M30 29.9999H14C12.9305 30.0319 12.0364 29.1933 12 28.1239V15.8749C12.0364 14.8057 12.9307 13.9674 14 13.9999H30C31.0693 13.9674 31.9636 14.8057 32 15.8749V28.1249C31.963 29.1939 31.0691 30.032 30 29.9999ZM14 15.9999V27.9889L30 27.9999V16.0109L14 15.9999ZM23.43 25.9999H16C16.0735 25.172 16.4653 24.4049 17.093 23.8599C17.7918 23.1667 18.7308 22.7691 19.715 22.7499C20.6992 22.7691 21.6382 23.1667 22.337 23.8599C22.9645 24.405 23.3563 25.1721 23.43 25.9999ZM28 24.9999H25V22.9999H28V24.9999ZM19.715 21.9999C19.1791 22.0186 18.6595 21.8138 18.2803 21.4347C17.9011 21.0555 17.6964 20.5359 17.715 19.9999C17.6967 19.4641 17.9015 18.9447 18.2806 18.5656C18.6597 18.1864 19.1792 17.9816 19.715 17.9999C20.2508 17.9816 20.7703 18.1864 21.1494 18.5656C21.5285 18.9447 21.7333 19.4641 21.715 19.9999C21.7336 20.5359 21.5289 21.0555 21.1497 21.4347C20.7705 21.8138 20.2509 22.0186 19.715 21.9999ZM28 20.9999H24V18.9999H28V20.9999Z" fill="#D24944"/>
</svg>
