<svg width="20" height="20" viewBox="0 0 20 20" fill="none" xmlns="http://www.w3.org/2000/svg">
<path d="M11.82 20H8.18C7.71011 20 7.30355 19.673 7.203 19.214L6.796 17.33C6.25305 17.0921 5.73822 16.7946 5.261 16.443L3.424 17.028C2.976 17.1709 2.48899 16.9823 2.254 16.575L0.429999 13.424C0.197586 13.0165 0.277657 12.5025 0.622999 12.185L2.048 10.885C1.9832 10.2961 1.9832 9.70189 2.048 9.113L0.622999 7.816C0.277148 7.49837 0.197046 6.98372 0.429999 6.576L2.25 3.423C2.48499 3.0157 2.972 2.82714 3.42 2.97L5.257 3.555C5.50106 3.37416 5.75513 3.20722 6.018 3.055C6.27034 2.91269 6.53004 2.78385 6.796 2.669L7.204 0.787C7.30407 0.327969 7.71019 0.000494393 8.18 0H11.82C12.2898 0.000494393 12.6959 0.327969 12.796 0.787L13.208 2.67C13.4888 2.79352 13.7622 2.93308 14.027 3.088C14.2739 3.23081 14.5126 3.38739 14.742 3.557L16.58 2.972C17.0277 2.82967 17.5141 3.01816 17.749 3.425L19.569 6.578C19.8014 6.98548 19.7213 7.49951 19.376 7.817L17.951 9.117C18.0158 9.70589 18.0158 10.3001 17.951 10.889L19.376 12.189C19.7213 12.5065 19.8014 13.0205 19.569 13.428L17.749 16.581C17.5141 16.9878 17.0277 17.1763 16.58 17.034L14.742 16.449C14.5094 16.6203 14.2677 16.7789 14.018 16.924C13.7558 17.0759 13.4854 17.2131 13.208 17.335L12.796 19.214C12.6955 19.6726 12.2895 19.9996 11.82 20ZM5.62 14.229L6.44 14.829C6.62485 14.9652 6.81751 15.0904 7.017 15.204C7.2047 15.3127 7.39796 15.4115 7.596 15.5L8.529 15.909L8.986 18H11.016L11.473 15.908L12.406 15.499C12.8133 15.3194 13.1999 15.0961 13.559 14.833L14.38 14.233L16.421 14.883L17.436 13.125L15.853 11.682L15.965 10.67C16.0142 10.2274 16.0142 9.78064 15.965 9.338L15.853 8.326L17.437 6.88L16.421 5.121L14.38 5.771L13.559 5.171C13.1998 4.90671 12.8132 4.68175 12.406 4.5L11.473 4.091L11.016 2H8.986L8.527 4.092L7.596 4.5C7.3978 4.58704 7.20452 4.68486 7.017 4.793C6.81874 4.90633 6.62709 5.03086 6.443 5.166L5.622 5.766L3.582 5.116L2.565 6.88L4.148 8.321L4.036 9.334C3.9868 9.77664 3.9868 10.2234 4.036 10.666L4.148 11.678L2.565 13.121L3.58 14.879L5.62 14.229ZM9.996 14C7.78686 14 5.996 12.2091 5.996 10C5.996 7.79086 7.78686 6 9.996 6C12.2051 6 13.996 7.79086 13.996 10C13.9932 12.208 12.204 13.9972 9.996 14ZM9.996 8C8.90339 8.00111 8.01389 8.87885 7.99823 9.97134C7.98257 11.0638 8.84656 11.9667 9.93869 11.9991C11.0308 12.0315 11.9468 11.1815 11.996 10.09V10.49V10C11.996 8.89543 11.1006 8 9.996 8Z" fill="#6A6E83"/>
</svg>
