<svg width="16" height="16" viewBox="0 0 16 16" fill="none" xmlns="http://www.w3.org/2000/svg">
<path d="M12 16H1C0.447715 16 0 15.5522 0 15V7.13996C0 6.88062 0.100756 6.63143 0.281 6.44496L5.781 0.744961C5.96945 0.549725 6.22915 0.439453 6.5005 0.439453C6.77185 0.439453 7.03155 0.549725 7.22 0.744961L8.871 2.45796L7.438 3.85196L6.5 2.87996L2 7.53996V13.995H13V14.995C13.0013 15.261 12.8966 15.5167 12.7089 15.7053C12.5212 15.8939 12.2661 16 12 16ZM13 12H11V8.99996H8V6.99996H11V3.99996H13V6.99996H16V8.99996H13V12Z" fill="#6A6E83"/>
</svg>
