<svg width="157" height="157" viewBox="0 0 157 157" fill="none" xmlns="http://www.w3.org/2000/svg">
<circle cx="78.5" cy="78.5" r="76" stroke="#FF1515" stroke-width="5"/>
<path d="M100.312 53.5H88.625V51.375C88.625 47.8541 85.7709 45 82.25 45H73.75C70.2291 45 67.375 47.8541 67.375 51.375V53.5H55.6875C52.7535 53.5 50.375 55.8785 50.375 58.8125V63.0625C50.375 64.2362 51.3263 65.1875 52.5 65.1875H103.5C104.674 65.1875 105.625 64.2362 105.625 63.0625V58.8125C105.625 55.8785 103.246 53.5 100.312 53.5ZM71.625 51.375C71.625 50.2036 72.5786 49.25 73.75 49.25H82.25C83.4214 49.25 84.375 50.2036 84.375 51.375V53.5H71.625V51.375Z" fill="#FF1515"/>
<path d="M54.4082 69.4375C54.029 69.4375 53.7268 69.7544 53.7449 70.1332L55.498 106.928C55.6601 110.333 58.4571 113 61.8651 113H94.1359C97.5438 113 100.341 110.333 100.503 106.928L102.256 70.1332C102.274 69.7544 101.972 69.4375 101.593 69.4375H54.4082ZM86.5005 74.75C86.5005 73.5759 87.4514 72.625 88.6255 72.625C89.7995 72.625 90.7505 73.5759 90.7505 74.75V102.375C90.7505 103.549 89.7995 104.5 88.6255 104.5C87.4514 104.5 86.5005 103.549 86.5005 102.375V74.75ZM75.8755 74.75C75.8755 73.5759 76.8264 72.625 78.0005 72.625C79.1745 72.625 80.1255 73.5759 80.1255 74.75V102.375C80.1255 103.549 79.1745 104.5 78.0005 104.5C76.8264 104.5 75.8755 103.549 75.8755 102.375V74.75ZM65.2505 74.75C65.2505 73.5759 66.2014 72.625 67.3755 72.625C68.5495 72.625 69.5005 73.5759 69.5005 74.75V102.375C69.5005 103.549 68.5495 104.5 67.3755 104.5C66.2014 104.5 65.2505 103.549 65.2505 102.375V74.75Z" fill="#FF1515"/>
</svg>
