<svg width="26" height="26" viewBox="0 0 26 26" fill="none" xmlns="http://www.w3.org/2000/svg">
<path d="M24.3761 13.2527C24.3761 12.3174 24.2987 11.6349 24.1311 10.9271H13.2333V15.1485H19.6301C19.5011 16.1975 18.8047 17.7774 17.2571 18.839L17.2354 18.9803L20.6811 21.5963L20.9198 21.6196C23.1122 19.6353 24.3761 16.7157 24.3761 13.2527Z" fill="#4285F4"/>
<path d="M13.2326 24.375C16.3664 24.375 18.9974 23.3638 20.919 21.6197L17.2563 18.839C16.2762 19.5089 14.9607 19.9766 13.2326 19.9766C10.1632 19.9766 7.55804 17.9923 6.62938 15.2496L6.49326 15.261L2.9104 17.9784L2.86354 18.106C4.77224 21.8218 8.69287 24.375 13.2326 24.375Z" fill="#34A853"/>
<path d="M6.63006 15.2497C6.38502 14.542 6.24321 13.7836 6.24321 13C6.24321 12.2163 6.38502 11.458 6.61717 10.7503L6.61067 10.5995L2.9829 7.8385L2.86421 7.89383C2.07754 9.43579 1.62614 11.1674 1.62614 13C1.62614 14.8326 2.07754 16.5641 2.86421 18.1061L6.63006 15.2497Z" fill="#FBBC05"/>
<path d="M13.2326 6.0233C15.4122 6.0233 16.8824 6.94594 17.7207 7.71696L20.9965 4.5825C18.9846 2.74987 16.3665 1.625 13.2326 1.625C8.69291 1.625 4.77225 4.17804 2.86354 7.89384L6.61651 10.7503C7.55806 8.00763 10.1632 6.0233 13.2326 6.0233Z" fill="#EB4335"/>
</svg>
