<svg width="43" height="26" viewBox="0 0 43 26" fill="none" xmlns="http://www.w3.org/2000/svg">
<path d="M24.6249 9.07678C23.9106 10.0968 23.7357 11.4003 24.1559 12.5725L25.6865 16.8102C26.1906 18.1848 26.0603 19.7121 25.3308 20.9813C24.6011 22.2506 23.347 23.132 21.9056 23.388C20.4638 23.6441 18.9832 23.2488 17.8609 22.3088C16.7386 21.3684 16.0902 19.9797 16.0899 18.5157C16.0849 17.934 16.1845 17.3565 16.384 16.8102L17.9146 12.5725H17.9143C18.3286 11.4014 18.1502 10.1022 17.4353 9.0863C16.7206 8.07012 15.5585 7.4629 14.3163 7.45666H0V10.0148H14.3201C14.7326 10.0198 15.1168 10.2238 15.3529 10.562C15.5887 10.9001 15.647 11.3313 15.5096 11.72L13.9834 15.9491C13.6839 16.7687 13.5323 17.6347 13.5356 18.5072C13.5394 20.4958 14.3323 22.4017 15.7397 23.8065C17.1472 25.2114 19.0547 26.0003 21.0433 26.0003C23.0319 26.0003 24.9393 25.2114 26.3468 23.8065C27.3472 22.7916 28.0419 21.5158 28.3509 20.1247C28.6601 18.7338 28.5712 17.2838 28.0948 15.9408L26.5728 11.7031C26.4354 11.3144 26.4937 10.8832 26.7295 10.5448C26.9654 10.2066 27.3499 10.0029 27.7623 9.99758H42.0657V7.43945L27.754 7.43975C26.5067 7.44451 25.3398 8.05503 24.6246 9.07685L24.6249 9.07678Z" fill="black"/>
<path d="M26.4247 4.55738C27.2261 3.18019 27.7677 1.57316 27.5416 0C27.2175 2.73711 24.941 4.75783 22.9331 6.64655V6.64625C21.7894 7.63655 20.8157 8.80736 20.0512 10.1122C18.9981 12.1032 18.7209 14.3755 17.5359 16.3067L17.5356 16.307C17.1945 16.8851 17.0187 17.5462 17.0277 18.2177C17.0366 18.8893 17.2302 19.5453 17.587 20.1141C18.1164 21.0116 18.9702 21.6715 19.9721 21.9579C20.9739 22.2443 22.0475 22.1352 22.9714 21.6531C23.6516 21.2737 24.2041 20.7006 24.5586 20.0071C24.9128 19.3133 25.0535 18.53 24.9625 17.7565C24.6342 15.4162 22.1659 13.6425 22.3193 11.2849C22.3874 10.2276 22.9887 9.28523 23.5984 8.43714C24.5616 7.13668 25.6233 5.93017 26.4247 4.55747L26.4247 4.55738Z" fill="black"/>
</svg>
