<svg width="189" height="50" viewBox="0 0 189 50" fill="none" xmlns="http://www.w3.org/2000/svg">
<g clip-path="url(#clip0_5316_830)">
<g clip-path="url(#clip1_5316_830)">
<path d="M9.65632 15.7616C11.913 15.7616 14.1697 15.7898 16.4265 15.7616C17.0189 15.7616 17.4138 15.9027 17.7241 16.4104C18.2036 17.1721 18.8524 17.8491 19.5859 18.4132C20.15 18.8646 20.8835 19.1467 20.5732 20.2186C20.3757 20.8674 21.0245 21.1213 21.6169 20.7546C22.576 20.134 23.1684 19.2313 23.2812 18.0747C23.3094 17.7644 23.3094 17.4259 22.9709 17.2285C22.6324 17.0592 22.2939 17.2003 22.0965 17.4259C21.4476 18.1876 20.9963 17.7362 20.4885 17.2849C16.1726 13.5613 15.9187 7.04506 19.9526 3.01119C23.9865 -1.02269 30.5027 -0.740596 34.2263 3.57537C37.9499 7.89133 37.1318 14.3512 32.4491 17.8209C31.8003 18.3004 31.1515 18.8082 30.4745 19.2313C27.6818 21.0085 26.4406 23.6319 26.215 26.8477C26.1867 27.1862 26.1585 27.5529 26.1585 27.8914C26.1303 29.048 26.0739 29.9789 24.6917 30.5995C23.112 31.3047 22.576 33.3358 23.112 35.0001C23.6762 36.6926 25.2841 37.7928 27.1176 37.6799C28.8102 37.5671 30.3053 36.2977 30.6438 34.6616C31.0105 32.8562 30.2488 31.0226 28.6127 30.3456C27.7664 30.0071 27.6254 29.5558 27.6818 28.7659C27.7664 27.6094 27.8793 26.4528 28.0767 25.2962C28.387 23.6037 29.1769 22.1932 30.5309 21.0931C32.5338 19.4852 34.7623 18.1594 36.2009 15.9309C36.3702 15.6488 36.6805 15.7052 36.9626 15.7052C41.6452 15.7052 46.3279 15.7052 51.0388 15.677C51.7158 15.677 51.8569 15.9027 51.8569 16.5233C51.8287 20.1622 51.8851 23.7729 51.8287 27.4119C51.8004 30.797 48.9796 33.5614 45.5945 33.6179C42.6326 33.6461 39.6706 33.6461 36.7087 33.6179C35.9752 33.6179 35.7496 33.8153 35.7496 34.5487C35.7778 37.3696 35.7778 40.1905 35.7496 43.0114C35.7214 46.9325 33.1826 49.5841 29.2615 49.7251C27.5408 49.7816 25.82 49.7816 24.0711 49.6969C20.545 49.5559 17.9215 46.9042 17.8651 43.3781C17.8087 40.5854 17.8651 37.821 17.8369 35.0283C17.8369 33.4204 18.0062 33.6461 16.3983 33.6461C13.6902 33.6461 10.9821 33.6461 8.24588 33.6461C4.5223 33.6179 1.75783 30.8816 1.75783 27.158C1.78603 23.7447 1.81424 20.2468 1.78603 16.7489C1.78603 15.9591 1.9835 15.7334 2.80156 15.7334C5.08648 15.818 7.3714 15.7616 9.65632 15.7616Z" fill="url(#paint0_linear_5316_830)"/>
<path d="M26.8641 36.0718C25.6229 36.0718 24.551 35.0563 24.551 33.8151C24.551 32.5739 25.6229 31.5302 26.8641 31.5584C28.0489 31.5584 29.0926 32.5739 29.1208 33.7587C29.149 34.9999 28.1053 36.0718 26.8641 36.0718Z" fill="#EFA220"/>
</g>
</g>
<path d="M61.7838 12.3781V10.1109H72.4655V12.3781H68.4837V23.1169H65.7656V12.3781H61.7838ZM74.5823 23.1169V10.1109H77.3321V15.4772H82.9143V10.1109H85.6578V23.1169H82.9143V17.7443H77.3321V23.1169H74.5823ZM88.2826 23.1169V10.1109H97.0465V12.3781H91.0324V15.4772H96.5956V17.7443H91.0324V20.8498H97.0719V23.1169H88.2826ZM104.087 10.1109H107.478L111.06 18.8493H111.212L114.794 10.1109H118.185V23.1169H115.518V14.6516H115.41L112.044 23.0534H110.228L106.862 14.6198H106.754V23.1169H104.087V10.1109ZM120.809 23.1169V10.1109H129.572V12.3781H123.558V15.4772H129.122V17.7443H123.558V20.8498H129.598V23.1169H120.809ZM136.727 23.1169H132.116V10.1109H136.765C138.073 10.1109 139.199 10.3713 140.143 10.892C141.088 11.4085 141.814 12.1516 142.322 13.1211C142.834 14.0906 143.09 15.2507 143.09 16.6012C143.09 17.956 142.834 19.1203 142.322 20.0941C141.814 21.0678 141.083 21.8151 140.131 22.3358C139.182 22.8566 138.048 23.1169 136.727 23.1169ZM134.866 20.7609H136.613C137.425 20.7609 138.109 20.6169 138.664 20.329C139.223 20.0369 139.642 19.586 139.921 18.9763C140.205 18.3625 140.347 17.5707 140.347 16.6012C140.347 15.6402 140.205 14.8548 139.921 14.2451C139.642 13.6355 139.225 13.1867 138.67 12.8988C138.116 12.6109 137.432 12.467 136.619 12.467H134.866V20.7609ZM148.235 10.1109V23.1169H145.485V10.1109H148.235ZM162.33 14.6643H159.549C159.498 14.3044 159.394 13.9848 159.237 13.7053C159.081 13.4217 158.88 13.1804 158.634 12.9814C158.389 12.7824 158.105 12.63 157.783 12.5241C157.466 12.4183 157.121 12.3654 156.748 12.3654C156.075 12.3654 155.489 12.5326 154.989 12.8671C154.489 13.1973 154.102 13.6799 153.827 14.315C153.552 14.9458 153.414 15.7121 153.414 16.6139C153.414 17.5411 153.552 18.3201 153.827 18.9509C154.106 19.5818 154.496 20.0581 154.995 20.3798C155.495 20.7016 156.073 20.8625 156.729 20.8625C157.097 20.8625 157.438 20.8138 157.751 20.7164C158.069 20.619 158.351 20.4772 158.596 20.2909C158.842 20.1004 159.045 19.8697 159.206 19.5987C159.371 19.3277 159.485 19.0187 159.549 18.6715L162.33 18.6842C162.258 19.2812 162.078 19.857 161.79 20.4116C161.507 20.962 161.124 21.4552 160.641 21.8913C160.163 22.3231 159.591 22.666 158.926 22.9201C158.266 23.1699 157.519 23.2948 156.685 23.2948C155.524 23.2948 154.487 23.0323 153.573 22.5073C152.662 21.9823 151.943 21.2223 151.414 20.2274C150.889 19.2325 150.626 18.028 150.626 16.6139C150.626 15.1956 150.893 13.989 151.426 12.9941C151.96 11.9991 152.684 11.2413 153.598 10.7206C154.513 10.1956 155.541 9.93307 156.685 9.93307C157.438 9.93307 158.137 10.0389 158.78 10.2506C159.428 10.4623 160.002 10.7714 160.501 11.1778C161.001 11.58 161.407 12.0732 161.721 12.6575C162.038 13.2417 162.241 13.9107 162.33 14.6643ZM166.657 23.1169H163.71L168.2 10.1109H171.744L176.227 23.1169H173.281L170.023 13.083H169.921L166.657 23.1169ZM166.473 18.0047H173.433V20.1512H166.473V18.0047ZM178.15 23.1169V10.1109H180.9V20.8498H186.476V23.1169H178.15Z" fill="#152A3C"/>
<path d="M70.6619 35.1416H69.1209C69.0616 34.8123 68.9513 34.5225 68.7899 34.2722C68.6286 34.022 68.431 33.8096 68.1972 33.6351C67.9634 33.4605 67.7016 33.3288 67.4118 33.2399C67.1254 33.151 66.8208 33.1066 66.4981 33.1066C65.9152 33.1066 65.3933 33.2531 64.9323 33.5462C64.4746 33.8392 64.1123 34.269 63.8456 34.8353C63.5822 35.4017 63.4505 36.0932 63.4505 36.9099C63.4505 37.7331 63.5822 38.4279 63.8456 38.9943C64.1123 39.5607 64.4762 39.9887 64.9372 40.2785C65.3982 40.5683 65.9169 40.7132 66.4931 40.7132C66.8125 40.7132 67.1155 40.6704 67.402 40.5848C67.6917 40.4958 67.9535 40.3658 68.1873 40.1945C68.4211 40.0233 68.6187 39.8142 68.78 39.5672C68.9447 39.317 69.0583 39.0305 69.1209 38.7078L70.6619 38.7127C70.5796 39.21 70.4199 39.6677 70.1828 40.0859C69.949 40.5008 69.6477 40.8597 69.2789 41.1627C68.9134 41.4623 68.4952 41.6945 68.0243 41.8591C67.5534 42.0238 67.0397 42.1061 66.4832 42.1061C65.6073 42.1061 64.8269 41.8986 64.142 41.4837C63.457 41.0655 62.917 40.4679 62.5219 39.6907C62.13 38.9136 61.9341 37.9866 61.9341 36.9099C61.9341 35.8298 62.1317 34.9028 62.5268 34.129C62.922 33.3519 63.462 32.7559 64.1469 32.341C64.8318 31.9228 65.6106 31.7137 66.4832 31.7137C67.02 31.7137 67.5205 31.791 67.9848 31.9458C68.4524 32.0973 68.8722 32.3212 69.2443 32.6176C69.6164 32.9106 69.9243 33.2696 70.168 33.6943C70.4117 34.1158 70.5763 34.5982 70.6619 35.1416ZM89.6209 36.9099C89.6209 37.9899 89.4234 38.9185 89.0282 39.6957C88.6331 40.4695 88.0914 41.0655 87.4032 41.4837C86.7182 41.8986 85.9395 42.1061 85.0668 42.1061C84.1909 42.1061 83.4089 41.8986 82.7206 41.4837C82.0357 41.0655 81.4957 40.4679 81.1005 39.6907C80.7054 38.9136 80.5078 37.9866 80.5078 36.9099C80.5078 35.8298 80.7054 34.9028 81.1005 34.129C81.4957 33.3519 82.0357 32.7559 82.7206 32.341C83.4089 31.9228 84.1909 31.7137 85.0668 31.7137C85.9395 31.7137 86.7182 31.9228 87.4032 32.341C88.0914 32.7559 88.6331 33.3519 89.0282 34.129C89.4234 34.9028 89.6209 35.8298 89.6209 36.9099ZM88.1095 36.9099C88.1095 36.0866 87.9761 35.3935 87.7094 34.8304C87.446 34.264 87.0838 33.8359 86.6227 33.5462C86.165 33.2531 85.6464 33.1066 85.0668 33.1066C84.484 33.1066 83.9637 33.2531 83.506 33.5462C83.0483 33.8359 82.6861 34.264 82.4193 34.8304C82.1559 35.3935 82.0242 36.0866 82.0242 36.9099C82.0242 37.7331 82.1559 38.4279 82.4193 38.9943C82.6861 39.5574 83.0483 39.9854 83.506 40.2785C83.9637 40.5683 84.484 40.7132 85.0668 40.7132C85.6464 40.7132 86.165 40.5683 86.6227 40.2785C87.0838 39.9854 87.446 39.5574 87.7094 38.9943C87.9761 38.4279 88.1095 37.7331 88.1095 36.9099ZM99.8694 31.852H101.722L104.942 39.7154H105.061L108.281 31.852H110.133V41.9678H108.681V34.6476H108.587L105.604 41.953H104.399L101.415 34.6427H101.322V41.9678H99.8694V31.852ZM120.698 41.9678V31.852H124.304C125.091 31.852 125.743 31.9952 126.26 32.2817C126.777 32.5682 127.164 32.96 127.42 33.4572C127.677 33.9512 127.806 34.5077 127.806 35.1268C127.806 35.7491 127.676 36.3089 127.415 36.8061C127.159 37.3001 126.77 37.6919 126.25 37.9817C125.733 38.2682 125.082 38.4114 124.299 38.4114H121.819V37.1173H124.16C124.658 37.1173 125.061 37.0317 125.371 36.8605C125.68 36.6859 125.907 36.4489 126.052 36.1492C126.197 35.8495 126.27 35.5087 126.27 35.1268C126.27 34.7448 126.197 34.4056 126.052 34.1092C125.907 33.8129 125.678 33.5807 125.366 33.4128C125.056 33.2449 124.648 33.1609 124.141 33.1609H122.224V41.9678H120.698ZM137.722 41.9678H136.102L139.742 31.852H141.506L145.146 41.9678H143.526L140.666 33.6894H140.587L137.722 41.9678ZM137.994 38.0064H143.249V39.2906H137.994V38.0064ZM163.117 31.852V41.9678H161.714L156.572 34.5488H156.478V41.9678H154.952V31.852H156.365L161.512 39.2808H161.605V31.852H163.117ZM172.908 31.852H174.642L177.285 36.4505H177.393L180.036 31.852H181.77L178.1 37.9965V41.9678H176.578V37.9965L172.908 31.852Z" fill="#152A3C"/>
<defs>
<linearGradient id="paint0_linear_5316_830" x1="26.8073" y1="0.154053" x2="26.8073" y2="49.7645" gradientUnits="userSpaceOnUse">
<stop stop-color="#0C59EA"/>
<stop offset="1" stop-color="#152A3C"/>
</linearGradient>
<clipPath id="clip0_5316_830">
<rect width="53.0478" height="49.6759" fill="white" transform="translate(0.544205 0.162109)"/>
</clipPath>
<clipPath id="clip1_5316_830">
<rect width="50.0708" height="49.6759" fill="white" transform="translate(1.78594 0.162109)"/>
</clipPath>
</defs>
</svg>
