<svg width="18" height="22" viewBox="0 0 18 22" fill="none" xmlns="http://www.w3.org/2000/svg">
<path fill-rule="evenodd" clip-rule="evenodd" d="M7.91673 3.49469V1.25002C7.91673 0.65202 8.40206 0.166687 9.00006 0.166687C9.59698 0.166687 10.0834 0.65202 10.0834 1.25002V3.49469C11.6932 3.72652 13.198 4.47402 14.3615 5.63752C15.7839 7.05994 16.5834 8.98935 16.5834 11V15.0777L17.4598 16.8305C17.8791 17.6701 17.8347 18.6668 17.3407 19.4652C16.8477 20.2636 15.9756 20.75 15.0375 20.75H10.0834C10.0834 21.348 9.59698 21.8334 9.00006 21.8334C8.40206 21.8334 7.91673 21.348 7.91673 20.75H2.96265C2.02339 20.75 1.15133 20.2636 0.658413 19.4652C0.164412 18.6668 0.119986 17.6701 0.54032 16.8305L1.41673 15.0777V11C1.41673 8.98935 2.21516 7.05994 3.63758 5.63752C4.80216 4.47402 6.30581 3.72652 7.91673 3.49469ZM9.00006 5.58335C7.56248 5.58335 6.18558 6.15427 5.16941 7.17044C4.15325 8.18552 3.58339 9.56352 3.58339 11V15.3334C3.58339 15.5013 3.54332 15.667 3.46857 15.8176C3.46857 15.8176 2.98648 16.7818 2.47731 17.799C2.3939 17.9669 2.40257 18.1674 2.50115 18.3266C2.59973 18.4859 2.77415 18.5834 2.96265 18.5834H15.0375C15.2249 18.5834 15.3993 18.4859 15.4979 18.3266C15.5965 18.1674 15.6052 17.9669 15.5217 17.799C15.0126 16.7818 14.5305 15.8176 14.5305 15.8176C14.4557 15.667 14.4167 15.5013 14.4167 15.3334V11C14.4167 9.56352 13.8458 8.18552 12.8296 7.17044C11.8135 6.15427 10.4366 5.58335 9.00006 5.58335Z" fill="#1A2BB1"/>
</svg>
