<svg width="36" height="44" viewBox="0 0 36 44" fill="none" xmlns="http://www.w3.org/2000/svg">
<path d="M28.453 28.5905C27.9261 28.7461 27.1525 28.7636 26.323 28.6433C25.4329 28.5142 24.5248 28.2421 23.6325 27.8411C25.2239 27.6096 26.4585 27.6809 27.5145 28.0551C27.7646 28.1437 28.1756 28.3806 28.4531 28.5905L28.453 28.5905ZM19.5736 27.1307C19.5089 27.1483 19.4451 27.165 19.3816 27.1826C18.9534 27.2992 18.5367 27.4129 18.1352 27.5141L17.5938 27.6514C16.5048 27.9269 15.3912 28.2085 14.2915 28.5438C14.7094 27.5358 15.0977 26.5168 15.4779 25.5204C15.7594 24.783 16.0469 24.0295 16.3442 23.2858C16.495 23.535 16.6525 23.7842 16.8162 24.034C17.5624 25.1704 18.5004 26.2211 19.5736 27.1308V27.1307ZM16.8033 15.765C16.874 17.0087 16.6057 18.2052 16.212 19.3529C15.7271 17.9336 15.5012 16.3664 16.1073 15.1011C16.2629 14.7768 16.3901 14.6034 16.4727 14.5129C16.6003 14.7099 16.7681 15.1504 16.8033 15.765V15.765ZM11.1177 31.5194C10.8453 32.0067 10.5672 32.4629 10.2822 32.8937C9.59439 33.9303 8.46954 35.0401 7.89168 35.0401C7.83481 35.0401 7.766 35.031 7.66545 34.9248C7.60072 34.8569 7.59035 34.8082 7.5935 34.7419C7.61298 34.3608 8.11791 33.6821 8.84936 33.0527C9.51328 32.4818 10.2636 31.9744 11.1176 31.5195L11.1177 31.5194ZM30.293 28.6445C30.2047 27.3751 28.0678 26.5607 28.0467 26.5531C27.2206 26.2603 26.3232 26.1179 25.3034 26.1179C24.2115 26.1179 23.0345 26.276 21.5229 26.6292C20.1777 25.6756 19.0158 24.4819 18.1476 23.1603C17.7643 22.5765 17.4196 21.9937 17.1192 21.4243C17.8526 19.6707 18.5131 17.7852 18.393 15.6734C18.2963 13.9801 17.5328 12.8427 16.4943 12.8427C15.782 12.8427 15.1687 13.3703 14.67 14.4122C13.7805 16.2689 14.0143 18.6446 15.3647 21.4793C14.8783 22.6218 14.4265 23.8061 13.9891 24.9526C13.4449 26.3782 12.8841 27.849 12.2521 29.2481C10.4797 29.9494 9.02364 30.8 7.81017 31.844C7.01523 32.5268 6.05689 33.5706 6.00219 34.6603C5.97548 35.1734 6.15144 35.6441 6.50901 36.0211C6.88889 36.4214 7.36614 36.6323 7.89091 36.6329C9.62409 36.6329 11.2922 34.2516 11.6086 33.7739C12.2455 32.814 12.8416 31.7432 13.4257 30.508C14.8968 29.9764 16.4647 29.5795 17.9842 29.1959L18.5284 29.0577C18.9375 28.9537 19.3626 28.8387 19.7988 28.7193C20.2603 28.5945 20.7351 28.4651 21.2178 28.3422C22.7781 29.3345 24.456 29.9818 26.0924 30.2193C27.4708 30.4198 28.6949 30.3035 29.5235 29.8715C30.2691 29.4831 30.3103 28.884 30.293 28.6445L30.293 28.6445ZM33.6496 39.5598C33.6496 41.8846 31.6007 42.0279 31.1872 42.0326H4.75162C2.43528 42.0326 2.2958 39.9695 2.29137 39.5598L2.29106 4.43941C2.29106 2.11237 4.34381 1.97128 4.7513 1.96662H22.6091L22.6185 1.97604V8.94486C22.6185 10.3434 23.4641 12.9912 26.6661 12.9912H33.59L33.6494 13.0506L33.6496 39.5598ZM32.0082 11.4028H26.6674C24.3517 11.4028 24.2116 9.35105 24.2084 8.94509V3.57093L32.0082 11.4028ZM35.238 39.5598V12.3954L24.2084 1.32006V1.26853H24.1557L23.2699 0.378418H4.75168C3.35127 0.378418 0.703125 1.22743 0.703125 4.44016V39.5606C0.703125 40.9651 1.54956 43.6217 4.75168 43.6217H31.1897C32.5898 43.6213 35.2379 42.7726 35.2379 39.5602" fill="#EB5757"/>
</svg>
