<svg width="18" height="18" viewBox="0 0 18 18" fill="none" xmlns="http://www.w3.org/2000/svg">
<path d="M9.0013 17.3334C4.39893 17.3334 0.667969 13.6025 0.667969 9.00008C0.667969 4.39771 4.39893 0.666748 9.0013 0.666748C13.6037 0.666748 17.3346 4.39771 17.3346 9.00008C17.3296 13.6004 13.6016 17.3284 9.0013 17.3334ZM9.0013 2.33341C5.3194 2.33341 2.33464 5.31818 2.33464 9.00008C2.33464 12.682 5.3194 15.6667 9.0013 15.6667C12.6832 15.6667 15.668 12.682 15.668 9.00008C15.6638 5.3199 12.6815 2.33755 9.0013 2.33341ZM13.168 9.83342H8.16797V4.83342H9.83464V8.16675H13.168V9.83342Z" fill="#6A6E83"/>
</svg>
